<?xml version="1.0" encoding="UTF-8"?>
<svg version="1.1" xmlns="http://www.w3.org/2000/svg" width="69" height="76">
<path d="M0 0 C0.66 0 1.32 0 2 0 C2.64001953 1.15048828 2.64001953 1.15048828 3.29296875 2.32421875 C7.45479014 9.71252434 11.78313711 16.97935129 16.25 24.1875 C16.79696533 25.07123291 17.34393066 25.95496582 17.9074707 26.86547852 C20.74221924 31.42705278 23.61247547 35.96159237 26.5390625 40.46484375 C27.09948242 41.33278564 27.65990234 42.20072754 28.23730469 43.0949707 C29.3097074 44.75169541 30.39079085 46.40284082 31.48144531 48.04760742 C31.95936523 48.7872876 32.43728516 49.52696777 32.9296875 50.2890625 C33.56753174 51.25900146 33.56753174 51.25900146 34.21826172 52.24853516 C35 54 35 54 34 57 C28.53615005 57.07963907 23.07639208 57.10038432 17.61206055 57.06713867 C15.75459558 57.06406099 13.89703177 57.07692888 12.03979492 57.10620117 C-3.48257728 57.3346546 -3.48257728 57.3346546 -7.31884766 53.96044922 C-8.6007206 51.63241296 -9.3727533 49.57180431 -10 47 C-10.495 46.505 -10.495 46.505 -11 46 C-11.23589844 46.71027344 -11.47179687 47.42054687 -11.71484375 48.15234375 C-13.16583354 51.45763359 -14.33946494 53.52498561 -17 56 C-22.46441732 57.6001082 -28.3677911 57.21324622 -34 57 C-33.33244708 53.2278765 -31.63027236 50.46880135 -29.640625 47.22265625 C-29.29961761 46.66315781 -28.95861023 46.10365936 -28.60726929 45.52720642 C-27.4932796 43.70246081 -26.37183168 41.88243304 -25.25 40.0625 C-24.47927156 38.80427122 -23.70892936 37.54580578 -22.93896484 36.28710938 C-21.00029231 33.12111303 -19.05504518 29.95921636 -17.10754395 26.79864502 C-15.43032493 24.07485096 -13.75868022 21.34763839 -12.0859375 18.62109375 C-10.93290378 16.74701909 -9.77929627 14.87329728 -8.625 13 C-8.09680664 12.14156494 -7.56861328 11.28312988 -7.02441406 10.39868164 C-6.53424805 9.6071167 -6.04408203 8.81555176 -5.5390625 8 C-5.11834473 7.319375 -4.69762695 6.63875 -4.26416016 5.9375 C-2.91760945 3.87372511 -1.58371767 1.89012458 0 0 Z M0 26 C-1.85023327 28.70073677 -3.46185733 31.55626773 -5.125 34.375 C-5.60582031 35.1690625 -6.08664063 35.963125 -6.58203125 36.78125 C-7.25685547 37.92207031 -7.25685547 37.92207031 -7.9453125 39.0859375 C-8.36312988 39.7876709 -8.78094727 40.4894043 -9.21142578 41.21240234 C-9.47165527 41.80230957 -9.73188477 42.3922168 -10 43 C-9.67 43.66 -9.34 44.32 -9 45 C-1.74 45 5.52 45 13 45 C11.29576965 42.32669749 9.59147154 39.65343813 7.88671875 36.98046875 C6.27687236 34.43737807 4.69644963 31.87935468 3.125 29.3125 C2.42375 28.219375 1.7225 27.12625 1 26 C0.67 26 0.34 26 0 26 Z " fill="#E60012" transform="translate(34,0)"/>
<path d="M0 0 C2.26075813 1.61482724 2.91195077 2.76100922 3.875 5.375 C4.03673305 8.77139406 2.96039694 10.28560423 1 13 C0 14 0 14 -3.875 14.3125 C-7.69113924 14.25094937 -7.69113924 14.25094937 -10 12.375 C-11.28292178 9.32806078 -11.40995912 7.27967299 -11 4 C-8.24976599 -0.8456504 -5.21936029 -1.56580809 0 0 Z M-6 3 C-6.33 3.33 -6.66 3.66 -7 4 C-6.71269945 6.33944736 -6.38063221 8.6739143 -6 11 C-4.35 10.67 -2.7 10.34 -1 10 C-0.30840599 8.15274948 -0.30840599 8.15274948 0 6 C-0.66 5.01 -1.32 4.02 -2 3 C-3.32 3 -4.64 3 -6 3 Z " fill="#000000" transform="translate(28,62)"/>
<path d="M0 0 C1.32 0 2.64 0 4 0 C4.83764268 1.95649397 5.66999059 3.91525556 6.5 5.875 C6.9640625 6.96554688 7.428125 8.05609375 7.90625 9.1796875 C9 12 9 12 9 14 C7.68 14 6.36 14 5 14 C4.67 13.34 4.34 12.68 4 12 C1.47266765 11.34444881 1.47266765 11.34444881 -1 11 C-1 11.99 -1 12.98 -1 14 C-2.32 14 -3.64 14 -5 14 C-4.34580901 8.93001981 -2.1453591 4.58009223 0 0 Z M1 5 C1 5.99 1 6.98 1 8 C1.66 7.67 2.32 7.34 3 7 C2.34 6.34 1.68 5.68 1 5 Z " fill="#000000" transform="translate(53,62)"/>
<path d="M0 0 C1.32 0 2.64 0 4 0 C4.83764268 1.95649397 5.66999059 3.91525556 6.5 5.875 C6.9640625 6.96554688 7.428125 8.05609375 7.90625 9.1796875 C9 12 9 12 9 14 C7.68 14 6.36 14 5 14 C4.67 13.34 4.34 12.68 4 12 C1.47266765 11.34444881 1.47266765 11.34444881 -1 11 C-1 11.99 -1 12.98 -1 14 C-2.32 14 -3.64 14 -5 14 C-4.34580901 8.93001981 -2.1453591 4.58009223 0 0 Z M1 5 C1 5.99 1 6.98 1 8 C1.66 7.67 2.32 7.34 3 7 C2.34 6.34 1.68 5.68 1 5 Z " fill="#000000" transform="translate(5,62)"/>
<path d="M0 0 C3.96 0 7.92 0 12 0 C12 0.99 12 1.98 12 3 C10.68 3.33 9.36 3.66 8 4 C8 7.3 8 10.6 8 14 C6.68 14 5.36 14 4 14 C4 10.37 4 6.74 4 3 C2.68 3 1.36 3 0 3 C0 2.01 0 1.02 0 0 Z " fill="#000000" transform="translate(35,62)"/>
<path d="M0 0 C0.99 0 1.98 0 3 0 C3 4.62 3 9.24 3 14 C2.01 14 1.02 14 0 14 C0 9.38 0 4.76 0 0 Z " fill="#000000" transform="translate(66,62)"/>
</svg>
